REM MD5 70a816c53c3260a2d94683923081d2d9
FILE "PlayStation Demo Disc - Spring 2000 (USA) (SCUS-94594).bin" BINARY
  TRACK 01 MODE2/2352
    INDEX 01 00:00:00
  TRACK 02 AUDIO
    INDEX 00 45:09:31
    INDEX 01 45:11:31
  TRACK 03 AUDIO
    INDEX 00 48:28:31
    INDEX 01 48:30:31
REM LEADOUT 48:36:27
